<?xml version="1.0" encoding="utf-8"?>
<!-- Generator: Adobe Illustrator 18.1.1, SVG Export Plug-In . SVG Version: 6.00 Build 0)  -->
<svg version="1.1" id="Ebene_1" xmlns="http://www.w3.org/2000/svg" xmlns:xlink="http://www.w3.org/1999/xlink" x="0px" y="0px"
	 viewBox="0 0 704.2 504.2" enable-background="new 0 0 704.2 504.2" xml:space="preserve">
<g>
	<path fill="#CA9E67" stroke="#936037" stroke-width="8.1309" stroke-miterlimit="10" d="M162.8,399.1c1.6,4,8.2,19,24.7,26.1
		c9.5,4.1,26.3,7.2,32,0c6.2-7.8-0.9-27-19.3-46.2"/>
	<path fill="#CA9E67" stroke="#936037" stroke-width="8.1309" stroke-miterlimit="10" d="M393.1,385.6c0,0-16.8,22.7-29.3,32.7
		c-13.6,10.9-20.7,7.1-22.7,6.9c-21.9-1.9,18.1-54.4,18.1-54.4"/>
	<path fill="#CA9E67" stroke="#936037" stroke-width="8.1309" stroke-miterlimit="10" d="M121.2,425.2c-16.2-6.4,18.8-42.8,25-87.9
		c9.7-71,14.4-160.7,77-193.4c53.5-67.6,279.7,9.1,291.2,13c80.7,27.2,49.7,103.5,80.8,130.2c35.6,30.5,35.6,30.5,35.6,30.5
		c-9.2,11.3-34.4,39-76.2,48.9c-10.6,2.5-34.8,9.1-55.2,8.3c-59.8-2-63.6-12.1-72.2-12c-41.4,0.5,50,49.3,8,62.3
		c-2.8,0.9-14.5,1.1-17.7-0.7c-4.2-2.5-10.8-7.2-17.6-12.3c-17.1-12.8-39.2-16.8-59.7-10.8c-47.8,14-64.5,14.2-124.2,2.8
		c-22.2-4.2-57.1,4.6-71.8,21.8l0,0C144.2,426,132.2,429.5,121.2,425.2z"/>
	<circle cx="633.8" cy="313.1" r="15.6"/>
	<g>
		<path fill="#FFFFFF" d="M477.8,273.6c4.3,4.1,31.6,29.5,59.5,21.8c3.1-0.9,10.5-5.4,13.1-15.8c2.5-10.5-2.1-20.3-10.5-26.3
			C530.7,246.8,498.4,253.1,477.8,273.6z"/>
		<path fill="#432918" d="M541.3,293.8c0,0,22.2-12.2,4.9-36c0,0-9.3-11.1-31.1-5.3c-21.8,5.8-28.4-15.7-28.4-15.7
			s-0.4,17.8,12.3,22.6c0,0-15,3.8-33.9-17.4c0,0,11.1,25.9,22.9,24.2c0,0-19.2,7.4-42-17.8c0,0,9.3,26.1,31.8,25.3l8.3,7.1
			c0,0,4-15.3,26.1-25.4c0,0-17,23.5,1.6,40C513.8,295.4,530.8,301.1,541.3,293.8z"/>
	</g>
	
		<ellipse transform="matrix(-0.8715 0.4904 -0.4904 -0.8715 1138.1292 231.9048)" fill="#CA9E67" cx="538.7" cy="265.1" rx="4" ry="5.8"/>
	<path fill="#DADADA" stroke="#575756" stroke-width="8.1309" stroke-miterlimit="10" d="M328.1,377.8c23,3,6.5,12,6.5,12
		c29.4,1,24.6-19,24.6-19c25,38,68-23,49-9s-49-13-22-21s35.2,10.4,34.4,7.5c-9.8-36.7-35.9-63.8-35.9-63.8
		c15,26.8,61.3,12.4,61.3,12.4c-27,11.8-49.3-69.2-30.3-54.2c19,15,42.5-5.9,42.5-5.9c-15,8-53-27.5-31-33.5s35,8.6,35,8.6
		c4.4-21.9-8-42.6-8-42.6c24.1,22.8,103,26,80,23s-25.8-22-25.8-22s16.8-18.9,34.8-7.9c0,0-9-28.1-37-25.1c0,0,7.6-37-28.4-52
		c0,0,4.8,37.2-14.2,37.2c0,0-1.4-31.2-39.4-30.2c0,0,5,19.8-2,23.8s-22-16.8-29.1-46.8c0,0-13.9,22.1-8.9,34.1c0,0-20-20-34-17
		c0,0,18,11,10,25s-47-20-41-35c0,0-36,13.3-28,29.3c0,0-51.2-26.3-86.2-11.3c0,0,26-4,30,17s-37,12-40-1s-29,10-12,27s30,10,30,10
		s-41,28-78-8c0,0,9.3,33.6,22,39c0,0-30-18-54,0c0,0,30.6,4.9,34,16c6.2,20.5-40.8,6-40.8,6s0.8,25,31.8,31s-15,32-36,14
		c0,0,23,22.7,25,40.8c2,18.2-38,29.2-60,15.2c0,0,8,35,51,24c0,0-5,23-35,15c0,0,8,22,36,14c0,0,43.2,19.5,20.2,30.5
		c0,0,16,8,42-17c0,0,4,19.1-11,22c0,0,0,13,46-22c0,0,23,7.8,16,24.4c0,0,26-7.4,27-27.4c0,0,19,40.1,28,31.1
		C277.2,395.9,305.1,374.8,328.1,377.8z"/>
	<path fill="#CA9E67" stroke="#936037" stroke-width="8.1309" stroke-miterlimit="10" d="M338.2,423.3"/>
	<path fill="none" stroke="#936037" stroke-miterlimit="10" d="M338.2,424.3"/>
</g>
</svg>
